<?xml version="1.0" encoding="UTF-8" standalone="no"?>
<!DOCTYPE svg PUBLIC "-//W3C//DTD SVG 1.1//EN" "http://www.w3.org/Graphics/SVG/1.1/DTD/svg11.dtd">
<svg width="100%" height="100%" viewBox="0 0 1024 1024" version="1.1" xmlns="http://www.w3.org/2000/svg" xmlns:xlink="http://www.w3.org/1999/xlink" xml:space="preserve" xmlns:serif="http://www.serif.com/" style="fill-rule:evenodd;clip-rule:evenodd;stroke-linejoin:round;stroke-miterlimit:2;">
    <circle cx="512" cy="512" r="502"/>
    <g transform="matrix(0.861255,0,0,0.861255,71.0375,71.0375)">
        <circle cx="512" cy="512" r="502" style="fill:white;"/>
    </g>
    <g transform="matrix(0.7164,0,0,0.7164,145.203,145.203)">
        <circle cx="512" cy="512" r="502"/>
    </g>
    <g transform="matrix(1.50616,0,0,1.50616,-360.979,-222.556)">
        <g transform="matrix(361.609,0,0,361.609,379.816,618.964)">
            <path d="M0.62,-0.049C0.624,-0.033 0.638,-0.023 0.662,-0.019C0.668,-0.018 0.671,-0.015 0.671,-0.009C0.671,-0.006 0.669,-0.003 0.666,-0C0.663,0.003 0.658,0.004 0.653,0.004C0.643,0.004 0.63,0.003 0.613,0.002C0.596,0.001 0.573,-0 0.542,-0C0.517,-0 0.496,0.001 0.477,0.003C0.458,0.004 0.447,0.005 0.443,0.006C0.44,0.006 0.437,0.005 0.436,0.003C0.435,0.001 0.434,-0.001 0.434,-0.004C0.434,-0.007 0.435,-0.009 0.436,-0.012C0.436,-0.015 0.438,-0.016 0.44,-0.016C0.445,-0.017 0.449,-0.018 0.454,-0.02C0.459,-0.022 0.463,-0.025 0.467,-0.028C0.469,-0.03 0.472,-0.041 0.475,-0.06C0.478,-0.079 0.48,-0.105 0.483,-0.137C0.485,-0.168 0.487,-0.205 0.489,-0.246C0.49,-0.287 0.491,-0.331 0.491,-0.377L0.491,-0.485C0.491,-0.518 0.489,-0.545 0.486,-0.566C0.48,-0.61 0.466,-0.644 0.444,-0.668C0.422,-0.691 0.396,-0.703 0.367,-0.703C0.341,-0.703 0.315,-0.696 0.29,-0.682C0.265,-0.667 0.242,-0.646 0.222,-0.619C0.202,-0.591 0.186,-0.556 0.174,-0.516C0.161,-0.474 0.155,-0.428 0.155,-0.375C0.155,-0.317 0.162,-0.267 0.175,-0.224C0.188,-0.181 0.205,-0.145 0.226,-0.116C0.247,-0.087 0.272,-0.065 0.3,-0.051C0.327,-0.036 0.356,-0.029 0.386,-0.029L0.392,-0.029C0.394,-0.029 0.396,-0.029 0.397,-0.03C0.4,-0.031 0.401,-0.031 0.402,-0.03C0.403,-0.029 0.403,-0.027 0.402,-0.025C0.401,-0.022 0.401,-0.02 0.4,-0.018C0.399,-0.015 0.397,-0.014 0.396,-0.013C0.389,-0.008 0.38,-0.004 0.368,-0.001C0.356,0.003 0.339,0.005 0.318,0.005C0.283,0.005 0.248,-0.003 0.213,-0.02C0.178,-0.036 0.146,-0.059 0.119,-0.088C0.091,-0.117 0.069,-0.153 0.052,-0.195C0.035,-0.236 0.026,-0.282 0.026,-0.332C0.026,-0.403 0.036,-0.464 0.057,-0.515C0.078,-0.566 0.106,-0.607 0.142,-0.639C0.177,-0.671 0.219,-0.695 0.266,-0.71C0.313,-0.724 0.363,-0.732 0.416,-0.732C0.435,-0.732 0.453,-0.73 0.469,-0.726C0.485,-0.722 0.499,-0.717 0.511,-0.712C0.523,-0.706 0.533,-0.7 0.541,-0.695C0.548,-0.69 0.553,-0.686 0.556,-0.683C0.561,-0.687 0.572,-0.692 0.589,-0.698C0.605,-0.703 0.623,-0.708 0.645,-0.714C0.666,-0.719 0.687,-0.723 0.71,-0.727C0.733,-0.73 0.753,-0.732 0.772,-0.732C0.823,-0.731 0.867,-0.722 0.906,-0.707C0.944,-0.692 0.976,-0.671 1.002,-0.646C1.027,-0.62 1.047,-0.59 1.06,-0.557C1.073,-0.523 1.079,-0.487 1.079,-0.449C1.079,-0.378 1.069,-0.314 1.051,-0.259C1.032,-0.203 1.006,-0.156 0.974,-0.117C0.942,-0.078 0.905,-0.049 0.863,-0.029C0.821,-0.008 0.777,0.002 0.731,0.002C0.727,0.002 0.724,0.001 0.723,-0.003C0.722,-0.006 0.721,-0.009 0.722,-0.012C0.722,-0.015 0.723,-0.018 0.725,-0.021C0.727,-0.023 0.729,-0.024 0.731,-0.023C0.734,-0.022 0.737,-0.021 0.739,-0.021L0.747,-0.021C0.774,-0.021 0.8,-0.03 0.824,-0.049C0.848,-0.068 0.869,-0.093 0.887,-0.127C0.905,-0.16 0.919,-0.198 0.93,-0.244C0.94,-0.289 0.945,-0.338 0.945,-0.391C0.945,-0.49 0.93,-0.568 0.9,-0.623C0.869,-0.678 0.822,-0.706 0.759,-0.706C0.74,-0.706 0.722,-0.702 0.705,-0.694C0.688,-0.686 0.674,-0.676 0.662,-0.663C0.649,-0.65 0.639,-0.635 0.632,-0.618C0.624,-0.601 0.619,-0.584 0.617,-0.567C0.614,-0.544 0.612,-0.506 0.611,-0.455C0.61,-0.404 0.61,-0.342 0.609,-0.269C0.608,-0.216 0.609,-0.169 0.611,-0.13C0.612,-0.09 0.615,-0.063 0.62,-0.049Z" style="fill:white;fill-rule:nonzero;"/>
        </g>
    </g>
</svg>
