<?xml version="1.0" encoding="UTF-8" standalone="no"?>
<!DOCTYPE svg PUBLIC "-//W3C//DTD SVG 1.1//EN" "http://www.w3.org/Graphics/SVG/1.1/DTD/svg11.dtd">
<svg width="100%" height="100%" viewBox="0 0 64 64" version="1.1" xmlns="http://www.w3.org/2000/svg" xmlns:xlink="http://www.w3.org/1999/xlink" xml:space="preserve" xmlns:serif="http://www.serif.com/" style="fill-rule:evenodd;clip-rule:evenodd;stroke-linejoin:round;stroke-miterlimit:2;">
    <g transform="matrix(6.12323e-17,1,-1,6.12323e-17,59.7608,5.58018)">
        <g transform="matrix(1,0,0,1,-6.21492,-11.5869)">
            <path d="M38.759,17.2L38.759,53.017C38.759,56.247 36.136,58.869 32.907,58.869L21.203,58.869C17.973,58.869 15.351,56.247 15.351,53.017L15.351,17.2C15.351,13.97 17.973,11.348 21.203,11.348L32.907,11.348C36.136,11.348 38.759,13.97 38.759,17.2ZM35.252,18.957C35.252,16.695 33.415,14.858 31.153,14.858L22.956,14.858C20.694,14.858 18.857,16.695 18.857,18.957L18.857,51.26C18.857,53.522 20.694,55.359 22.956,55.359L31.153,55.359C33.415,55.359 35.252,53.522 35.252,51.26L35.252,18.957Z" style="fill:rgb(128,128,128);"/>
        </g>
        <g transform="matrix(1,0,0,1,4.94543,-3.10839)">
            <path d="M38.759,17.2L38.759,53.017C38.759,56.247 36.136,58.869 32.907,58.869L21.203,58.869C17.973,58.869 15.351,56.247 15.351,53.017L15.351,17.2C15.351,13.97 17.973,11.348 21.203,11.348L32.907,11.348C36.136,11.348 38.759,13.97 38.759,17.2ZM35.252,18.957C35.252,16.695 33.415,14.858 31.153,14.858L22.956,14.858C20.694,14.858 18.857,16.695 18.857,18.957L18.857,51.26C18.857,53.522 20.694,55.359 22.956,55.359L31.153,55.359C33.415,55.359 35.252,53.522 35.252,51.26L35.252,18.957Z" style="fill:rgb(128,128,128);"/>
        </g>
    </g>
</svg>
