<?xml version="1.0" encoding="UTF-8" standalone="no"?>
<!DOCTYPE svg PUBLIC "-//W3C//DTD SVG 1.1//EN" "http://www.w3.org/Graphics/SVG/1.1/DTD/svg11.dtd">
<svg width="100%" height="100%" viewBox="0 0 64 64" version="1.1" xmlns="http://www.w3.org/2000/svg" xmlns:xlink="http://www.w3.org/1999/xlink" xml:space="preserve" xmlns:serif="http://www.serif.com/" style="fill-rule:evenodd;clip-rule:evenodd;stroke-linejoin:round;stroke-miterlimit:2;">
    <g transform="matrix(0.610429,0,0,0.610429,24.9451,12.4663)">
        <circle cx="33.342" cy="51.212" r="8.788" style="fill:rgb(128,128,128);"/>
        <g transform="matrix(1.59996,0,0,1.92474,-20.0038,-77.654)">
            <path d="M32.662,59.974C31.438,56.659 28.987,49.582 28.987,46.043C28.987,44.045 30.938,42.423 33.342,42.423C35.745,42.423 37.696,44.045 37.696,46.043C37.696,49.582 35.246,56.659 34.021,59.974C33.797,59.991 33.57,60 33.342,60C33.113,60 32.886,59.991 32.662,59.974Z" style="fill:rgb(128,128,128);"/>
        </g>
    </g>
    <g transform="matrix(3.95281e-17,0.645543,-0.645543,3.95281e-17,45.8125,8.2629)">
        <path d="M21.183,54.813L15.393,54.813L36.771,17.377L58.148,54.813L52.358,54.813L36.771,27.516L21.183,54.813Z" style="fill:rgb(128,128,128);"/>
    </g>
</svg>
