<?xml version="1.0" encoding="UTF-8" standalone="no"?>
<!DOCTYPE svg PUBLIC "-//W3C//DTD SVG 1.1//EN" "http://www.w3.org/Graphics/SVG/1.1/DTD/svg11.dtd">
<svg width="100%" height="100%" viewBox="0 0 64 64" version="1.1" xmlns="http://www.w3.org/2000/svg" xmlns:xlink="http://www.w3.org/1999/xlink" xml:space="preserve" xmlns:serif="http://www.serif.com/" style="fill-rule:evenodd;clip-rule:evenodd;stroke-linejoin:round;stroke-miterlimit:2;">
    <g transform="matrix(0.798899,0,0,1.24481,-24.6267,-5.80983)">
        <g transform="matrix(74.0504,0,0,62.2098,32,52.8672)">
            <path d="M0.367,-0.185L0.242,-0.185C0.242,-0.202 0.242,-0.213 0.242,-0.217C0.242,-0.258 0.248,-0.291 0.262,-0.317C0.275,-0.343 0.302,-0.372 0.342,-0.405C0.382,-0.437 0.406,-0.459 0.414,-0.469C0.426,-0.485 0.432,-0.502 0.432,-0.521C0.432,-0.548 0.421,-0.571 0.4,-0.59C0.378,-0.609 0.35,-0.619 0.313,-0.619C0.279,-0.619 0.25,-0.609 0.226,-0.589C0.203,-0.569 0.187,-0.539 0.178,-0.498L0.052,-0.514C0.055,-0.572 0.08,-0.621 0.126,-0.662C0.172,-0.703 0.233,-0.723 0.308,-0.723C0.386,-0.723 0.449,-0.703 0.496,-0.661C0.542,-0.62 0.565,-0.572 0.565,-0.518C0.565,-0.487 0.557,-0.459 0.54,-0.432C0.523,-0.405 0.486,-0.368 0.43,-0.321C0.401,-0.297 0.383,-0.278 0.376,-0.263C0.369,-0.249 0.366,-0.222 0.367,-0.185ZM0.242,-0L0.242,-0.137L0.379,-0.137L0.379,-0L0.242,-0Z" style="fill:rgb(128,128,128);fill-rule:nonzero;"/>
        </g>
    </g>
    <g transform="matrix(-0.884342,0,0,0.764992,63.5374,7.52026)">
        <path d="M32,60L4,60L4,44.894L9.1,44.894L9.1,19.106L4,19.106L4,4L32,4L32,19.106L17.195,19.106L17.195,44.894L32,44.894L32,60Z" style="fill:rgb(128,128,128);"/>
    </g>
</svg>
